<svg xmlns="http://www.w3.org/2000/svg" width="97" height="41" viewBox="0 0 97 41">
  <g fill="none" fill-rule="evenodd">
    <path fill="#000" d="M11.464 20L11.464 4.375 17.53 4.375 17.53 0 0 0 0 4.375 6.067 4.375 6.067 20 11.464 20zM31.594 20L31.594 13.71 39 0 32.894 0 28.954 8.125 28.797 8.125 24.857 0 18.752 0 26.158 13.71 26.158 20 31.594 20zM45.529 41L45.529 35.062 48.592 35.062C50.143 35.062 51.5 34.779 52.664 34.212 53.827 33.646 54.732 32.839 55.379 31.791 56.025 30.743 56.349 29.503 56.349 28.071 56.349 26.651 56.033 25.411 55.404 24.35 54.774 23.288 53.892 22.465 52.758 21.879 51.625 21.293 50.302 21 48.791 21L40 21 40 41 45.529 41 45.529 41zM47.478 30.844L45.529 30.844 45.529 25.336 47.478 25.336C48.446 25.336 49.205 25.576 49.755 26.059 50.305 26.54 50.581 27.211 50.581 28.07 50.581 28.923 50.305 29.599 49.755 30.097 49.205 30.595 48.445 30.844 47.478 30.844zM71.98 41L78.703 21 72.458 21 68.28 35.102 68.121 35.102 63.946 21 57.7 21 64.422 41 71.979 41 71.98 41zM86.18 41L86.18 35.062 89.244 35.062C90.794 35.062 92.152 34.779 93.316 34.212 94.479 33.646 95.384 32.839 96.03 31.791 96.677 30.743 97 29.503 97 28.071 97 26.651 96.685 25.411 96.055 24.35 95.425 23.288 94.544 22.465 93.41 21.879 92.277 21.293 90.954 21 89.442 21L80.652 21 80.652 41 86.181 41 86.18 41zM88.13 30.844L86.18 30.844 86.18 25.336 88.13 25.336C89.098 25.336 89.857 25.576 90.407 26.059 90.957 26.54 91.232 27.211 91.232 28.07 91.232 28.923 90.957 29.599 90.407 30.097 89.857 30.595 89.097 30.844 88.13 30.844zM42 0L97 0 97 14 42 14 42 0zM0 29L37 29 37 34 0 34 0 29z"/>
    <path fill="#0065FF" fill-rule="nonzero" d="M64.7613636,13.1207386 C65.4214015,13.1207386 66.0281132,12.9476799 66.5814986,12.6015625 C67.134884,12.2554451 67.5775923,11.730232 67.9096236,11.0259233 C68.2416548,10.3216146 68.4076705,9.43418561 68.4076705,8.36363636 C68.4076705,7.24479167 68.2336056,6.33522727 67.8854759,5.63494318 C67.5373461,4.93465909 67.0865885,4.42151989 66.5332031,4.09552557 C65.9798177,3.76953125 65.3972538,3.60653409 64.7855114,3.60653409 C64.0973011,3.60653409 63.5358665,3.77858665 63.1012074,4.12269176 C62.6665483,4.46679687 62.3586648,4.87428977 62.1775568,5.34517045 L62.1775568,5.34517045 L62.1292614,5.34517045 L62.1292614,0.636363636 L58.796875,0.636363636 L58.796875,13 L62.1051136,13 L62.1051136,11.4786932 L62.1775568,11.4786932 C62.3707386,11.9495739 62.6866714,12.3409683 63.1253551,12.6528764 C63.5640388,12.9647846 64.109375,13.1207386 64.7613636,13.1207386 Z M63.5298295,10.5610795 C63.0710227,10.5610795 62.7108191,10.3638731 62.4492188,9.96946023 C62.1876184,9.57504735 62.0568182,9.03977273 62.0568182,8.36363636 C62.0568182,7.67542614 62.1876184,7.13713305 62.4492188,6.7487571 C62.7108191,6.36038116 63.0710227,6.16619318 63.5298295,6.16619318 C63.9886364,6.16619318 64.3448153,6.36038116 64.5983665,6.7487571 C64.8519176,7.13713305 64.9786932,7.67542614 64.9786932,8.36363636 C64.9786932,9.05184659 64.8519176,9.59013968 64.5983665,9.97851562 C64.3448153,10.3668916 63.9886364,10.5610795 63.5298295,10.5610795 Z M74.2514205,13.1690341 C75.5392992,13.1690341 76.5786577,12.883286 77.3694957,12.3117898 C78.1603338,11.7402936 78.634233,10.9715909 78.7911932,10.0056818 L78.7911932,10.0056818 L75.7485795,10.0056818 C75.6519886,10.2672822 75.4759115,10.4695194 75.220348,10.6123935 C74.9647846,10.7552675 74.6659564,10.8267045 74.3238636,10.8267045 C73.8288352,10.8267045 73.4434777,10.680812 73.1677912,10.389027 C72.8921046,10.097242 72.7542614,9.72798295 72.7542614,9.28125 L72.7542614,9.28125 L72.7542614,9.13636364 L78.7911932,9.13636364 L78.7911932,8.36363636 C78.7911932,7.37760417 78.6010298,6.52941525 78.2207031,5.8190696 C77.8403764,5.10872396 77.3051018,4.56238163 76.6148793,4.18004261 C75.9246567,3.7977036 75.1126894,3.60653409 74.1789773,3.60653409 C73.2211174,3.60653409 72.3900331,3.80575284 71.6857244,4.20419034 C70.9814157,4.60262784 70.4360795,5.16003788 70.0497159,5.87642045 C69.6633523,6.59280303 69.4701705,7.42992424 69.4701705,8.38778409 C69.4701705,9.8889678 69.8957741,11.0611387 70.7469815,11.9042969 C71.5981889,12.747455 72.7663352,13.1690341 74.2514205,13.1690341 Z M75.7244318,7.30113636 L72.7542614,7.30113636 C72.7623106,6.89867424 72.9122277,6.57267992 73.2040128,6.32315341 C73.4957978,6.07362689 73.8449337,5.94886364 74.2514205,5.94886364 C74.6659564,5.94886364 75.01308,6.07463305 75.2927912,6.32617187 C75.5725024,6.5777107 75.7163826,6.90269886 75.7244318,7.30113636 L75.7244318,7.30113636 Z M81.6134588,12.5079901 C82.2030658,12.9889323 83.0733902,13.1972064 84.2244318,13.1328125 C84.6027462,13.1126894 84.9297467,13.0704309 85.2054332,13.0060369 C85.4811198,12.941643 85.6934186,12.8873106 85.8423295,12.8430398 L85.8423295,12.8430398 L85.359375,10.5007102 C85.2949811,10.5168087 85.1953717,10.5369318 85.0605469,10.5610795 C84.9257221,10.5852273 84.8080019,10.5973011 84.7073864,10.5973011 C84.2888258,10.5973011 84.0795455,10.4041193 84.0795455,10.0177557 L84.0795455,10.0177557 L84.0795455,6.14204545 L85.6732955,6.14204545 L85.6732955,3.72727273 L84.0795455,3.72727273 L84.0795455,1.50568182 L80.7471591,1.50568182 L80.7471591,3.72727273 L79.5639205,3.72727273 L79.5639205,6.14204545 L80.7471591,6.14204545 L80.7471591,10.3316761 C80.7350852,11.3016098 81.0238518,12.0270478 81.6134588,12.5079901 Z M89.609375,13.1448864 C90.2130682,13.1448864 90.7402936,13.0332031 91.1910511,12.8098366 C91.6418087,12.5864702 92.0080492,12.2151989 92.2897727,11.6960227 L92.2897727,11.6960227 L92.3622159,11.6960227 L92.3622159,13 L95.4772727,13 L95.4772727,6.64914773 C95.4772727,6.07765152 95.3052202,5.5625 94.9611151,5.10369318 C94.6170099,4.64488636 94.1260062,4.28065814 93.4881037,4.01100852 C92.8502012,3.7413589 92.0885417,3.60653409 91.203125,3.60653409 C90.2814867,3.60653409 89.5127841,3.7504143 88.897017,4.03817472 C88.28125,4.32593513 87.8133878,4.70827415 87.4934304,5.18519176 C87.173473,5.66210937 86.9933712,6.18229167 86.953125,6.74573864 L86.953125,6.74573864 L90.0198864,6.74573864 C90.0601326,6.45999053 90.1798651,6.24769176 90.3790838,6.10884233 C90.5783026,5.9699929 90.8368845,5.90056818 91.1548295,5.90056818 C91.4446023,5.90056818 91.6820549,5.96496212 91.8671875,6.09375 C92.0523201,6.22253788 92.1448864,6.40767045 92.1448864,6.64914773 L92.1448864,6.64914773 L92.1448864,6.67329545 C92.1448864,6.94294508 91.9818892,7.13310843 91.6558949,7.24378551 C91.3299006,7.35446259 90.7765152,7.43797348 89.9957386,7.49431818 C89.3598485,7.53858902 88.7843277,7.66335227 88.2691761,7.86860795 C87.7540246,8.07386364 87.3455256,8.38375947 87.043679,8.79829545 C86.7418324,9.21283144 86.5909091,9.76017992 86.5909091,10.4403409 C86.5909091,11.3619792 86.8726326,12.0431463 87.4360795,12.4838423 C87.9995265,12.9245384 88.7239583,13.1448864 89.609375,13.1448864 Z M90.6960227,11.0440341 C90.4142992,11.0440341 90.1828835,10.9756155 90.0017756,10.8387784 C89.8206676,10.7019413 89.7301136,10.5047348 89.7301136,10.2471591 C89.7301136,10.0097064 89.8186553,9.80445076 89.9957386,9.63139205 C90.172822,9.45833333 90.4545455,9.34161932 90.8409091,9.28125 C91.3963068,9.19270833 91.8390152,9.08001894 92.1690341,8.94318182 L92.1690341,8.94318182 L92.1690341,9.71590909 C92.1690341,10.1384943 92.0181108,10.4654948 91.7162642,10.6969105 C91.4144176,10.9283262 91.0743371,11.0440341 90.6960227,11.0440341 Z"/>
  </g>
</svg>
