<svg xmlns="http://www.w3.org/2000/svg" width="238" height="85" viewBox="0 0 238 85">
  <g fill="none" transform="translate(2 -7)">
    <path fill="#FFD67E" d="M101.912073 64.4045635C100.121766 62.6064792 97.220132 62.6075101 95.431091 64.406866 93.6420499 66.206222 93.6430756 69.1225235 95.4333818 70.9206079L101.357673 76.8748449 95.4333818 82.8244769C94.2752566 83.9876335 93.8225206 85.6834101 94.245715 87.273024 94.6689094 88.8626379 95.903741 90.104589 97.4850605 90.5310462 99.0663801 90.9575035 100.753948 90.5036779 101.912073 89.3405213L111.075709 80.1305646C111.936069 79.2668168 112.419495 78.0947462 112.419495 76.8725424 112.419495 75.6503385 111.936069 74.478268 111.075709 73.6145202L101.912073 64.4045635zM83.3328 58.6713654C82.5271439 57.2291706 81.0138299 56.3319945 79.3682242 56.3208429 77.7226185 56.3098977 76.1975139 57.1866743 75.3727594 58.6179227 74.548005 60.0491712 74.5502968 61.8150279 75.3787636 63.2441089L79.5344727 70.5522096 72.2631273 74.7335299C70.4576065 75.771622 69.5744038 77.9018581 70.1122368 79.921359 70.6500698 81.9408599 72.4739699 83.3428341 74.5540364 83.335731 75.3578251 83.3410244 76.1485479 83.1312184 76.8449455 82.7277724L88.0978909 76.2808027C89.1536421 75.6747712 89.9264462 74.6718522 90.2461295 73.4928915 90.5658127 72.3139307 90.40616 71.0556071 89.8023273 69.9950072L83.3328 58.6713654zM69.8072727 61.2639683L63.9425455 49.6456079C63.2232571 48.1412543 61.7503757 47.1458248 60.0928325 47.043825 58.4352894 46.9418252 56.8525809 47.7492236 55.9560615 49.1541457 55.0595421 50.5590678 54.9895663 52.3415661 55.7731636 53.8131133L59.5623273 61.323833 52.0939636 65.1367551C49.9783226 66.3533828 49.1807734 69.021814 50.2791347 71.208789 51.3774961 73.395764 53.9872289 74.3356171 56.2176 73.3474315L67.7729455 67.4530592C68.8600744 66.9042687 69.685419 65.9434751 70.0670309 64.7824863 70.4486429 63.6214975 70.3551895 62.3556381 69.8072727 61.2639683zM51.5120727 49.8067821L49.3082182 36.9681025C48.8780385 34.4617205 46.5077038 32.7803887 44.0139273 33.2127428 41.5201508 33.6450968 39.847275 36.0274131 40.2774545 38.5337951L41.7024 46.8227561 33.4551273 48.2595094C31.8066387 48.5011889 30.4185685 49.6231177 29.8300647 51.1895209 29.241561 52.7559242 29.5453703 54.5199409 30.6234885 55.7963996 31.7016066 57.0728583 33.384125 57.6605924 35.0175273 57.3313167L47.7870545 55.1163222C50.2709909 54.6783913 51.9358458 52.3053522 51.5120727 49.8067821zM36.612 36.636544C37.3955186 35.7052441 37.779454 34.4995883 37.6795636 33.2841198L36.6028364 20.3026858C36.3928075 17.7670562 34.1773496 15.882645 31.6544727 16.0937356 29.1315958 16.3048261 27.256662 18.5314827 27.4666909 21.0671122L28.1677091 29.4619877 19.8196364 30.1619444C17.2891681 30.2662182 15.3219237 32.4124676 15.4256729 34.9557269 15.5294221 37.4989862 17.6648772 39.4761747 20.1953455 39.3719012 20.3235507 39.3785667 20.452013 39.3785667 20.5802182 39.3719012L33.4917818 38.2897312C34.7096833 38.1792351 35.8331029 37.5840129 36.612 36.636544L36.612 36.636544z"/>
    <path fill="#000" d="M138.855273 64.9801858C137.995869 64.1154766 136.829693 63.6296071 135.613636 63.6296071 134.397579 63.6296071 133.231404 64.1154766 132.372 64.9801858L123.208364 74.1901425C122.348003 75.0538903 121.864578 76.2259608 121.864578 77.4481647 121.864578 78.6703685 122.348003 79.8424391 123.208364 80.7061869L132.372 89.9161436C133.530125 91.0801228 135.218129 91.5347084 136.800158 91.1086625 138.382186 90.6826165 139.617891 89.4406655 140.041794 87.8506403 140.465697 86.2606151 140.013398 84.5640784 138.855273 83.4000992L132.930982 77.4458622 138.855273 71.4962302C139.715633 70.6324824 140.199059 69.4604118 140.199059 68.238208 140.199059 67.0160041 139.715633 65.8439336 138.855273 64.9801858zM162.025527 75.3183622L154.7496 71.1370418 158.905309 63.8289412C159.733776 62.3998601 159.736068 60.6340035 158.911313 59.202755 158.086559 57.7715065 156.561454 56.89473 154.915849 56.9056752 153.270243 56.9168267 151.756929 57.8140028 150.951273 59.2561977L144.536727 70.5660245C143.932895 71.6266245 143.773242 72.884948 144.092925 74.0639088 144.412608 75.2428695 145.185412 76.2457885 146.241164 76.85182L157.489527 83.2987897C158.911421 84.1314442 160.668396 84.1337477 162.092447 83.3048243 163.516497 82.4759008 164.388864 80.9430871 164.377974 79.2891632 164.366878 77.6352393 163.474214 76.1142758 162.039273 75.3045473L162.025527 75.3183622zM182.176364 65.7123773L174.703418 61.8994553 178.497164 54.3887356C179.576411 52.1315455 178.663078 49.4213013 176.441205 48.287841 174.219331 47.1543808 171.503521 48.0132642 170.327782 50.2212302L164.458473 61.8395905C163.314079 64.1069561 164.214469 66.8774345 166.469891 68.0286815L178.025236 73.9230538C179.485549 74.6768507 181.235524 74.5878142 182.61263 73.6896528 183.989737 72.7914914 184.783498 71.2214807 184.6934 69.5740169 184.603302 67.9265531 183.643117 66.4534356 182.176364 65.7123773L182.176364 65.7123773zM200.847273 48.8443416L192.6 47.4075884 194.024945 39.1186273C194.455125 36.6122454 192.782249 34.2299292 190.288473 33.7975751 187.794696 33.365221 185.424362 35.0465528 184.994182 37.5529347L182.790327 50.3916144C182.361316 52.8964599 184.032638 55.2769928 186.524509 55.7103644L199.298618 57.9253589C201.751611 58.2761074 204.037644 56.6034148 204.459036 54.1494773 204.880429 51.6955397 203.284499 49.3494769 200.856436 48.8535516L200.847273 48.8443416zM214.469018 30.7329618L206.120945 30.0330051 206.817382 21.6381295C207.025909 19.1038478 205.151098 16.8793989 202.6296 16.6693579 201.415636 16.5507841 200.205548 16.9305864 199.274459 17.7224134 198.34337 18.5142405 197.7704 19.6508062 197.685818 20.8737031L196.609091 33.873557C196.400489 36.4061843 198.272631 38.6298994 200.792291 38.8423286L213.708436 39.9244986C213.836636 39.9313846 213.96511 39.9313846 214.093309 39.9244986 216.623777 40.0287721 218.759233 38.0515836 218.862982 35.5083243 218.966731 32.965065 216.999486 30.8188155 214.469018 30.7145418L214.469018 30.7329618z"/>
  </g>
</svg>
