<svg width="97" height="41" xmlns="http://www.w3.org/2000/svg"><g fill="#FFF" fill-rule="evenodd"><path d="M11.464 20V4.375h6.066V0H0v4.375h6.067V20h5.397zm20.13 0v-6.29L39 0h-6.106l-3.94 8.125h-.157L24.857 0h-6.105l7.406 13.71V20h5.436zM45.529 41v-5.938h3.063c1.551 0 2.908-.283 4.072-.85 1.163-.566 2.068-1.373 2.715-2.421.646-1.048.97-2.288.97-3.72 0-1.42-.316-2.66-.945-3.721-.63-1.062-1.512-1.885-2.646-2.471-1.133-.586-2.456-.879-3.967-.879H40v20h5.529zm1.949-10.156h-1.949v-5.508h1.949c.968 0 1.727.24 2.277.723.55.481.826 1.152.826 2.011 0 .853-.276 1.529-.826 2.027-.55.498-1.31.747-2.277.747zM71.98 41l6.723-20h-6.245L68.28 35.102h-.159L63.946 21H57.7l6.722 20h7.557zm14.2 0v-5.938h3.064c1.55 0 2.908-.283 4.072-.85 1.163-.566 2.068-1.373 2.714-2.421.647-1.048.97-2.288.97-3.72 0-1.42-.315-2.66-.945-3.721-.63-1.062-1.511-1.885-2.645-2.471-1.133-.586-2.456-.879-3.968-.879h-8.79v20h5.529zm1.95-10.156h-1.95v-5.508h1.95c.968 0 1.727.24 2.277.723.55.481.825 1.152.825 2.011 0 .853-.275 1.529-.825 2.027-.55.498-1.31.747-2.277.747z" fill-rule="nonzero"/><path d="M42 6h55v5H42zM0 29h37v5H0z"/></g></svg>
